<svg version="1.1" id="Layer_1" xmlns="http://www.w3.org/2000/svg" xmlns:xlink="http://www.w3.org/1999/xlink" x="0px" y="0px"
	 width="100%" viewBox="0 0 329 455" enable-background="new 0 0 329 455" xml:space="preserve">
<path fill="#FFFFFF" opacity="1.000000" stroke="none" 
	d="
M330.000000,181.000000 
	C330.000000,272.620575 330.000000,364.241180 330.000000,455.930878 
	C220.434586,455.930878 110.869110,455.930878 1.000000,455.930878 
	C1.000000,367.312683 1.000000,278.625000 1.375998,189.614227 
	C2.462505,192.075729 3.065774,194.892990 3.902337,197.639160 
	C7.284851,208.742874 10.739223,219.824692 14.137402,231.280670 
	C16.958742,237.083817 19.305672,242.863892 22.736897,247.906113 
	C68.968285,315.843689 115.346649,383.681274 161.726151,451.517975 
	C162.590942,452.782837 163.913132,453.735016 165.364639,454.844360 
	C166.456818,453.990662 167.301025,453.190399 167.942261,452.251495 
	C214.668472,383.837982 261.422424,315.443237 307.996704,246.926346 
	C311.298828,242.068527 313.269531,236.305679 316.140350,230.744354 
	C319.595215,220.746994 323.045929,211.047394 325.845612,201.163361 
	C327.710876,194.578339 328.647675,187.730316 330.000000,181.000000 
z"/>
<path fill="#03A7B4" opacity="1.000000" stroke="none" 
	d="
M14.167073,230.914597 
	C10.739223,219.824692 7.284851,208.742874 3.902337,197.639160 
	C3.065774,194.892990 2.462505,192.075729 1.375998,189.145569 
	C1.000000,175.645767 1.000000,162.291550 1.343939,148.298904 
	C1.932723,145.408035 2.177568,143.155563 2.575873,140.612473 
	C2.752591,139.888794 2.775850,139.455765 2.900152,138.654053 
	C3.006846,137.522797 3.012497,136.760223 3.145713,135.772141 
	C3.351775,135.214096 3.430273,134.881546 3.694559,134.230438 
	C3.926440,132.935349 3.972532,131.958817 4.113096,130.840240 
	C4.207569,130.698196 4.223564,130.357361 4.482203,130.083435 
	C4.895463,128.572617 5.050086,127.335754 5.133152,126.067673 
	C5.061595,126.036469 5.173602,126.145241 5.440101,125.907028 
	C5.888519,124.492615 6.070438,123.316422 6.159344,122.079102 
	C6.066329,122.017975 6.225284,122.173813 6.486290,121.950806 
	C6.854982,120.824715 6.962668,119.921616 7.305444,118.738235 
	C26.511160,60.423138 65.287689,22.855261 124.014778,6.096295 
	C131.856064,3.858624 139.997543,2.672884 148.000000,1.000000 
	C153.354935,1.000000 158.709854,1.000000 164.538208,1.468630 
	C165.012253,21.634562 165.012863,41.331863 164.623260,61.177139 
	C160.080353,61.612309 155.886581,61.622700 151.781586,62.231590 
	C125.040413,66.198105 102.887688,78.407234 85.260422,99.028656 
	C59.041222,129.701431 53.664474,178.264786 72.715469,213.321777 
	C71.234520,214.293259 70.010872,215.223679 68.633430,215.621078 
	C64.369911,216.851166 64.043373,219.311523 65.696739,222.979996 
	C66.821877,225.476440 67.362724,228.236206 67.686836,230.909409 
	C49.528248,230.931915 31.847660,230.923248 14.167073,230.914597 
z"/>
<path fill="#018A94" opacity="1.000000" stroke="none" 
	d="
M165.013474,61.029163 
	C165.012863,41.331863 165.012253,21.634562 165.005829,1.468630 
	C170.354935,1.000000 175.709854,1.000000 181.704758,1.369097 
	C184.807190,2.110091 187.267441,2.497504 189.732452,2.851628 
	C258.672760,12.755609 315.254669,67.491066 327.070801,135.681580 
	C327.958282,140.803131 329.019531,145.894577 330.000000,151.000000 
	C330.000000,153.041672 330.000000,155.083328 329.675964,157.829666 
	C329.567963,163.356216 329.783966,168.178116 330.000000,173.000000 
	C330.000000,175.370560 330.000000,177.741104 330.000000,180.555832 
	C328.647675,187.730316 327.710876,194.578339 325.845612,201.163361 
	C323.045929,211.047394 319.595215,220.746994 315.947449,230.762070 
	C315.473541,230.999100 315.095459,230.914337 314.770081,230.641235 
	C297.281250,230.251816 280.117798,230.135483 262.955811,229.633270 
	C264.020844,225.951294 266.546021,222.220306 265.731537,219.483109 
	C264.937714,216.815445 260.728027,215.164261 258.227570,212.779846 
	C276.594666,173.199829 273.366028,135.724106 247.158997,101.285660 
	C226.761002,74.480827 198.499283,61.998981 165.013474,61.029163 
z"/>
<path fill="#FEFEFE" opacity="1.000000" stroke="none" 
	d="
M330.000000,150.531342 
	C329.019531,145.894577 327.958282,140.803131 327.070801,135.681580 
	C315.254669,67.491066 258.672760,12.755609 189.732452,2.851628 
	C187.267441,2.497504 184.807190,2.110091 182.172363,1.369097 
	C231.260818,1.000000 280.521637,1.000000 330.000000,1.000000 
	C330.000000,50.687351 330.000000,100.375015 330.000000,150.531342 
z"/>
<path fill="#FEFEFE" opacity="1.000000" stroke="none" 
	d="
M147.531342,1.000000 
	C139.997543,2.672884 131.856064,3.858624 124.014778,6.096295 
	C65.287689,22.855261 26.511160,60.423138 7.019880,118.944572 
	C6.407913,120.345406 6.316598,121.259613 6.225284,122.173813 
	C6.225284,122.173813 6.066329,122.017975 5.826768,122.250824 
	C5.449339,123.704193 5.311471,124.924721 5.173602,126.145241 
	C5.173602,126.145241 5.061595,126.036469 4.803480,126.274078 
	C4.438098,127.793571 4.330831,129.075470 4.223564,130.357361 
	C4.223564,130.357361 4.207569,130.698196 3.825206,131.102585 
	C3.464819,132.520981 3.486795,133.535004 3.508771,134.549011 
	C3.430273,134.881546 3.351775,135.214096 2.809068,135.777039 
	C1.896573,136.004959 1.448286,136.002472 1.000000,136.000000 
	C1.000000,91.069901 1.000000,46.139797 1.000000,1.000000 
	C49.687359,1.000000 98.375023,1.000000 147.531342,1.000000 
z"/>
<path fill="#459BA3" opacity="1.000000" stroke="none" 
	d="
M330.000000,172.533875 
	C329.783966,168.178116 329.567963,163.356216 329.675964,158.267166 
	C330.000000,162.689255 330.000000,167.378510 330.000000,172.533875 
z"/>
<path fill="#D0E3E5" opacity="1.000000" stroke="none" 
	d="
M2.422414,140.903107 
	C2.177568,143.155563 1.932723,145.408035 1.343939,147.830246 
	C1.000000,145.958328 1.000000,143.916672 1.238159,141.431274 
	C1.788587,140.924698 2.103952,140.896545 2.422414,140.903107 
z"/>
<path fill="#D0E3E5" opacity="1.000000" stroke="none" 
	d="
M1.000000,136.333313 
	C1.448286,136.002472 1.896573,136.004959 2.681504,136.002533 
	C3.012497,136.760223 3.006846,137.522797 2.670831,138.527039 
	C1.893644,138.512482 1.446822,138.256241 1.000000,138.000000 
	C1.000000,137.555557 1.000000,137.111099 1.000000,136.333313 
z"/>
<path fill="#FEFEFE" opacity="1.000000" stroke="none" 
	d="
M1.000000,138.375000 
	C1.446822,138.256241 1.893644,138.512482 2.569788,138.895721 
	C2.775850,139.455765 2.752591,139.888794 2.575873,140.612473 
	C2.103952,140.896545 1.788587,140.924698 1.238159,140.993774 
	C1.000000,140.250000 1.000000,139.500000 1.000000,138.375000 
z"/>
<path fill="#384B52" opacity="1.000000" stroke="none" 
	d="
M14.137402,231.280670 
	C31.847660,230.923248 49.528248,230.931915 67.936050,231.165268 
	C73.146812,244.069077 77.493927,256.799622 82.235115,269.381653 
	C83.126480,271.747101 85.196617,274.209442 87.388588,275.461212 
	C113.213943,290.209290 139.166183,304.735199 165.062958,319.767700 
	C165.034561,365.088226 165.028244,409.960663 165.021912,454.833069 
	C163.913132,453.735016 162.590942,452.782837 161.726151,451.517975 
	C115.346649,383.681274 68.968285,315.843689 22.736897,247.906113 
	C19.305672,242.863892 16.958742,237.083817 14.137402,231.280670 
z"/>
<path fill="#2B2F32" opacity="1.000000" stroke="none" 
	d="
M165.364639,454.844360 
	C165.028244,409.960663 165.034561,365.088226 165.030823,319.671204 
	C165.020752,319.126617 164.961212,318.932098 165.321945,319.008789 
	C192.245789,304.206451 218.833817,289.371307 245.310822,274.340576 
	C246.917252,273.428650 248.008331,271.099762 248.717270,269.198303 
	C253.473434,256.441437 258.061096,243.621689 263.195129,230.881897 
	C280.823090,230.932404 297.959259,230.923370 315.095459,230.914337 
	C315.095459,230.914337 315.473541,230.999100 315.666443,230.981384 
	C313.269531,236.305679 311.298828,242.068527 307.996704,246.926346 
	C261.422424,315.443237 214.668472,383.837982 167.942261,452.251495 
	C167.301025,453.190399 166.456818,453.990662 165.364639,454.844360 
z"/>
<path fill="#FEFEFE" opacity="1.000000" stroke="none" 
	d="
M164.623260,61.177139 
	C198.499283,61.998981 226.761002,74.480827 247.158997,101.285660 
	C273.366028,135.724106 276.594666,173.199829 257.851715,212.751816 
	C255.877762,212.491287 254.438644,212.076904 253.108185,211.436737 
	C231.269333,200.928833 209.460922,190.357498 187.606400,179.882385 
	C180.438858,176.446899 173.159576,173.244598 165.555191,169.934494 
	C164.086395,170.294098 162.938354,170.539230 161.909317,171.032562 
	C136.042465,183.433563 110.199516,195.884506 84.318810,208.256470 
	C80.601166,210.033646 76.712128,211.452316 72.902405,213.036896 
	C53.664474,178.264786 59.041222,129.701431 85.260422,99.028656 
	C102.887688,78.407234 125.040413,66.198105 151.781586,62.231590 
	C155.886581,61.622700 160.080353,61.612309 164.623260,61.177139 
M165.153992,115.262108 
	C153.943665,111.841957 142.733337,108.421799 131.306610,104.935623 
	C131.306610,113.103188 131.306610,120.846336 131.306610,129.014740 
	C142.671204,130.196213 153.846817,131.358032 165.827866,132.709808 
	C176.999771,131.434860 188.171692,130.159897 199.128616,128.909470 
	C199.128616,120.600052 199.128616,112.914955 199.128616,104.801506 
	C187.716476,108.451889 176.820282,111.937241 165.153992,115.262108 
M166.369293,159.592834 
	C188.578751,170.232071 210.788223,180.871323 233.540436,191.770554 
	C233.540436,172.225250 233.540436,153.899246 233.540436,135.378647 
	C221.946442,136.623459 210.751221,137.774292 199.569077,139.040451 
	C188.378754,140.307526 177.201477,141.689865 165.152710,142.985779 
	C143.437531,140.596161 121.706230,138.338623 100.022888,135.688568 
	C96.356010,135.240402 96.038490,136.618744 96.040817,139.322479 
	C96.054878,155.647644 96.046860,171.972839 96.078888,188.297943 
	C96.080406,189.074249 96.391487,189.849930 96.693726,191.254990 
	C98.625038,190.622391 100.354149,190.259720 101.900902,189.517181 
	C114.201729,183.612045 126.439415,177.575012 138.754272,171.699570 
	C147.745483,167.409821 156.824341,163.303741 166.369293,159.592834 
z"/>
<path fill="#D6D6D6" opacity="1.000000" stroke="none" 
	d="
M72.715469,213.321777 
	C76.712128,211.452316 80.601166,210.033646 84.318810,208.256470 
	C110.199516,195.884506 136.042465,183.433563 161.909317,171.032562 
	C162.938354,170.539230 164.086395,170.294098 165.575989,170.409485 
	C165.635727,220.234482 165.298477,269.583282 164.961212,318.932098 
	C164.961212,318.932098 165.020752,319.126617 165.052887,319.223114 
	C139.166183,304.735199 113.213943,290.209290 87.388588,275.461212 
	C85.196617,274.209442 83.126480,271.747101 82.235115,269.381653 
	C77.493927,256.799622 73.146812,244.069077 68.414047,231.134094 
	C67.362724,228.236206 66.821877,225.476440 65.696739,222.979996 
	C64.043373,219.311523 64.369911,216.851166 68.633430,215.621078 
	C70.010872,215.223679 71.234520,214.293259 72.715469,213.321777 
z"/>
<path fill="#D0E3E5" opacity="1.000000" stroke="none" 
	d="
M4.482203,130.083435 
	C4.330831,129.075470 4.438098,127.793571 4.875036,126.305283 
	C5.050086,127.335754 4.895463,128.572617 4.482203,130.083435 
z"/>
<path fill="#D0E3E5" opacity="1.000000" stroke="none" 
	d="
M5.440102,125.907028 
	C5.311471,124.924721 5.449339,123.704193 5.919783,122.311951 
	C6.070438,123.316422 5.888519,124.492615 5.440102,125.907028 
z"/>
<path fill="#D0E3E5" opacity="1.000000" stroke="none" 
	d="
M3.694560,134.230438 
	C3.486795,133.535004 3.464819,132.520981 3.730733,131.244629 
	C3.972532,131.958817 3.926440,132.935349 3.694560,134.230438 
z"/>
<path fill="#D0E3E5" opacity="1.000000" stroke="none" 
	d="
M6.486289,121.950806 
	C6.316598,121.259613 6.407913,120.345406 6.784791,119.224869 
	C6.962668,119.921616 6.854982,120.824715 6.486289,121.950806 
z"/>
<path fill="#B3B3B3" opacity="1.000000" stroke="none" 
	d="
M165.321945,319.008789 
	C165.298477,269.583282 165.635727,220.234482 165.952179,170.410675 
	C173.159576,173.244598 180.438858,176.446899 187.606400,179.882385 
	C209.460922,190.357498 231.269333,200.928833 253.108185,211.436737 
	C254.438644,212.076904 255.877762,212.491287 257.642181,213.038757 
	C260.728027,215.164261 264.937714,216.815445 265.731537,219.483109 
	C266.546021,222.220306 264.020844,225.951294 262.873413,229.827820 
	C262.789520,230.408295 262.703369,230.822342 262.703369,230.822342 
	C258.061096,243.621689 253.473434,256.441437 248.717270,269.198303 
	C248.008331,271.099762 246.917252,273.428650 245.310822,274.340576 
	C218.833817,289.371307 192.245789,304.206451 165.321945,319.008789 
z"/>
<path fill="#30969F" opacity="1.000000" stroke="none" 
	d="
M263.195129,230.881897 
	C262.703369,230.822342 262.789520,230.408295 262.871948,230.213730 
	C280.117798,230.135483 297.281250,230.251816 314.770081,230.641235 
	C297.959259,230.923370 280.823090,230.932404 263.195129,230.881897 
z"/>
<path fill="#D6D6D6" opacity="1.000000" stroke="none" 
	d="
M165.864120,159.115784 
	C156.824341,163.303741 147.745483,167.409821 138.754272,171.699570 
	C126.439415,177.575012 114.201729,183.612045 101.900902,189.517181 
	C100.354149,190.259720 98.625038,190.622391 96.693726,191.254990 
	C96.391487,189.849930 96.080406,189.074249 96.078888,188.297943 
	C96.046860,171.972839 96.054878,155.647644 96.040817,139.322479 
	C96.038490,136.618744 96.356010,135.240402 100.022888,135.688568 
	C121.706230,138.338623 143.437531,140.596161 165.562347,143.468185 
	C165.936035,149.005661 165.900085,154.060715 165.864120,159.115784 
z"/>
<path fill="#B4B4B4" opacity="1.000000" stroke="none" 
	d="
M166.116699,159.354309 
	C165.900085,154.060715 165.936035,149.005661 165.995239,143.486130 
	C177.201477,141.689865 188.378754,140.307526 199.569077,139.040451 
	C210.751221,137.774292 221.946442,136.623459 233.540436,135.378647 
	C233.540436,153.899246 233.540436,172.225250 233.540436,191.770554 
	C210.788223,180.871323 188.578751,170.232071 166.116699,159.354309 
z"/>
<path fill="#CD3907" opacity="1.000000" stroke="none" 
	d="
M165.924103,115.422592 
	C176.820282,111.937241 187.716476,108.451889 199.128616,104.801506 
	C199.128616,112.914955 199.128616,120.600052 199.128616,128.909470 
	C188.171692,130.159897 176.999771,131.434860 165.421402,132.365448 
	C165.014450,131.688492 165.015610,131.355911 165.303314,130.722031 
	C165.702591,125.943626 165.816940,121.466515 165.932968,116.727982 
	C165.931137,116.118561 165.927612,115.770576 165.924103,115.422592 
z"/>
<path fill="#FF3705" opacity="1.000000" stroke="none" 
	d="
M165.018402,131.023331 
	C165.015610,131.355911 165.014450,131.688492 165.018677,132.270477 
	C153.846817,131.358032 142.671204,130.196213 131.306610,129.014740 
	C131.306610,120.846336 131.306610,113.103188 131.306610,104.935623 
	C142.733337,108.421799 153.943665,111.841957 165.539047,115.342346 
	C165.927612,115.770576 165.931137,116.118561 165.652008,117.029594 
	C165.252365,122.069542 165.135391,126.546432 165.018402,131.023331 
z"/>
<path fill="#E36741" opacity="1.000000" stroke="none" 
	d="
M165.303314,130.722031 
	C165.135391,126.546432 165.252365,122.069542 165.650314,117.291031 
	C165.816940,121.466515 165.702591,125.943626 165.303314,130.722031 
z"/>
</svg>